<svg id="Calque_1" data-name="Calque 1" xmlns="http://www.w3.org/2000/svg" viewBox="0 0 47.42 49"><defs><style>.cls-1{fill:#d9e0e1;}.cls-2{fill:#3d495a;}</style></defs><title>ico-microscope</title><rect class="cls-1" x="10.15" y="25.65" width="5.98" height="3.98" transform="translate(-17.31 30.81) rotate(-70.53)"/><path class="cls-1" d="M47.42,41.1V23.71a7.92,7.92,0,0,0-7.9-7.9H23.66l2.09-5.9-2.82-1,1.33-3.76L20.5,3.83,19.17,7.58l-2.82-1-6,16.91,9.4,3.32,3.89-11-.56,1.76,6.14,6.14h3.95c4.75,0,6.33,3.5,6.33,7.9v4c0,4.41-1.92,7.12-6.33,7.12H17.39l-3.46-5.53h6.62a.8.8,0,0,0,0-1.59H3.16a.8.8,0,0,0,0,1.59H7.9V49H39.52A7.93,7.93,0,0,0,47.42,41.1Z"/><path class="cls-2" d="M46.63,45.84h-4.5a8.69,8.69,0,0,0,3.71-7.11V21.34a8.7,8.7,0,0,0-8.7-8.69H22.41L24.12,7.8a.78.78,0,0,0,0-.6.79.79,0,0,0-.45-.41l-2.07-.73.8-2.27,1.13.4a.86.86,0,0,0,.27,0,.78.78,0,0,0,.74-.53.79.79,0,0,0-.48-1l-3-1L18.39.71h0L16.51.05a.78.78,0,0,0-1,.48.79.79,0,0,0,.48,1l1.13.4-.8,2.27-2.08-.74a.78.78,0,0,0-1,.48l-6,16.91a.81.81,0,0,0,0,.61.77.77,0,0,0,.45.4l1.14.4-1.73,4.9a.78.78,0,0,0,.48,1l3.75,1.33a.86.86,0,0,0,.27.05.84.84,0,0,0,.34-.08.77.77,0,0,0,.4-.45l1.73-4.89,3,1.06a.75.75,0,0,0,.26,0,.77.77,0,0,0,.74-.53L21,16.6l5.3,5.3a.79.79,0,0,0,.56.23h3.95c3.72,0,5.53,2.33,5.53,7.11v3.95c0,4.26-1.81,6.33-5.53,6.33H15.45l-3-4.75h5.69a.79.79,0,1,0,0-1.58H.79a.79.79,0,0,0,0,1.58h4V45.84H.79a.79.79,0,0,0,0,1.58H46.63a.79.79,0,0,0,0-1.58ZM11.16,27.75,8.9,27l1.47-4.15,2.26.8ZM18.61,2.46l1.14.4,1.13.41-.8,2.26-2.27-.8Zm-1.69,21L9,20.65,14.46,5.23,16.53,6h0L20.3,7.29h0L22.37,8Zm18.64,22.4H6.32V34.77h4.31l3.72,6a.78.78,0,0,0,.67.37h15.8c4.59,0,7.12-2.81,7.12-7.91V29.24c0-5.6-2.53-8.69-7.12-8.69H27.2L21.6,15l.25-.72H37.14a7.12,7.12,0,0,1,7.12,7.11V38.73a7.12,7.12,0,0,1-7.12,7.11Z"/></svg>