<svg xmlns="http://www.w3.org/2000/svg" viewBox="0 0 23 19"><g fill="none" fill-rule="evenodd" stroke="#28303B" stroke-linecap="round" stroke-linejoin="round"><path d="M15.965 9.5h-2.82V6.68H9.62V9.5H6.8v3.525h2.82v2.82h3.525v-2.82h2.82z"/><path d="M21.605 5.975c0-1.1636025-.95175-2.115-2.115-2.115H3.275c-1.16325 0-2.115.9513975-2.115 2.115v9.87c0 1.1628975.95175 2.115 2.115 2.115H19.49c1.16325 0 2.115-.9521025 2.115-2.115v-9.87z"/><path d="M8.21 3.86V2.0975c0-.581625.475875-1.0575 1.0575-1.0575h4.23c.581625 0 1.0575.475875 1.0575 1.0575V3.86"/></g></svg>