<svg xmlns="http://www.w3.org/2000/svg" viewBox="0 0 50 50"><g fill="none" fill-rule="evenodd"><path fill="#D9E0E1" d="M49.7439927 15.152915c-.934062-.9421188-2.51324-1.8086537-4.9710497-2.7275617-1.766698-.6600188-3.7940372-1.2158867-5.7234885-1.5705947-1.2560303-2.0377855-2.9920647-3.38519977-4.525837-4.49038895-1.5437969-1.1129261-2.6506368-1.95744061-2.8334394-2.69542369C31.5922903 3.28745631 31.2243265 3 30.833365 3h-3.2426812v.06427595c-.3703226.13152763-.5867372.42731601-.5896856.82487464v4.02855442c-1.46301.25829408-2.7567802.52730081-3.7804744 1.04388897-.8827594.44576559-1.534362 1.12780482-1.8639963 1.94315712-1.0496403-.5028998-2.2632133-1.32420356-2.6700964-2.55437375-.2453092-.58979132-.8574029-.69334701-1.2625169-.76178899l-.1114506-.01963987-.0465851.00714177c-.5979412.08927215-1.1115574.35411285-1.6080727.60943119-.1415245.07320316-.2836387.14640632-.3791678.19758902-.2252599.06130021-.4216252.22318037-.5389727.44457529-.1173474.22079978-.1427039.47492782-.0689932.69870334.467031 1.4140708.5118471 2.466887.5183337 4.2493542-1.1121471.104746-1.9654222.011903-2.5385966-.2779339-.6710622-.3380439-1.151656-.930811-1.7130367-1.7800867-.0902219-.1327179-.2140558-.238059-.3779884-.3136428-1.70006365-.6510915-4.21035528-.6873955-5.71228452.7742871-.13385864.1350985-.22231148.3136428-.24766796.495758l-.59086498 3.5762422c-.05248202.3701819.14034518.7486958.46408257.9171225l6.18698139 3.4048397 1.6475816 4.4237325c.2417711.9177177.8857078 1.6402269 1.3545078 2.1663374.4688001.5326572.9499836 1.1516107.9600082 1.6562959-.5879165 4.1523452-1.1428107 8.0743682-3.9915819 12.673074-.0896322.1422403-.1373967.3059059-.1385761.4767133 0 1.4414476.8680172 2.6787596 2.5792849 3.6786076 1.5054673.8790331 3.6436673 1.628324 6.279562 2.5144988.405114.1398597.8874768-.0601099 1.0767659-.4421947l.2335155-.4582637c.5902753.205326 1.1799609.4225549 1.618687.6885859.6663448.4035101 1.0360776.8332067 1.2353914 1.4366864.116168.3570886.4570063.608836.8326361.6135972h4.1336961c.4110108-.0083321.7777953-.3207846.8538647-.7231044l.5106678-2.5924631 2.9849885-1.9967204c1.0331292.0732032 1.8522025.5903865 2.8812039 1.2396925l.1061434.0672517c1.2465954.7861901 2.7673946 1.6253483 5.0388635 1.6253483 1.380454 0 2.9478384-.7129869 4.4137968-2.0074331 1.0797144-.9522362 2.366998-2.4621258 2.366998-4.2386415.0005897-.3939877-.2848181-.765955-.665755-.8659398l-1.5762296-.3969635.0642757-.3678013c.497105-2.8287367.8562235-4.8724737-.2335155-8.170782-.0878632-.2612698-.2948428-.4695715-.5543045-.5582485l-2.2985945-.7730968 5.084859-6.159183c.9440867-1.4075242 1.2265461-3.1376184 1.3568666-4.3166059.1379864-1.2563567.2688966-2.4436762 1.0107211-3.4417388.2606411-.3487565.2246702-.8629641-.0819663-1.1706554"/><path fill="#3D495A" d="M37.6375847 25.3232117l-1.474214 1.7860155c-.1662914.2160359-.2152353.5147962-.1309103.7998683.0843251.284477.288946.5070594.5466386.5951401l3.0993876 1.0480418c.7931271 2.6382561.5183336 4.1897863.0695829 6.7310346-.0748901.4213592-.153908.8694997-.2341052 1.3557292-.0689932.4463551.228798.8968761.6622169 1.0045965l1.4795212.3731528c-.2388227.7724919-.8007931 1.596761-1.547335 2.2561762-1.0419745.9194915-2.3787918 1.5622428-3.2515265 1.5622428-1.8126935 0-2.9295581-.6112089-4.0994943-1.3491826l-.3048675-.1940157c-1.1015327-.7034556-2.2402156-1.4307168-3.8341358-1.4307168h-.0011794c-.1739572-.0071417-.352632.0404695-.510078.1422385l-3.5457796 2.3853215c-.1916478.1386677-.3219683.352323-.3567598.5737151l-.4499301 2.2526053h-2.9124572c-.3986275-.7576134-.9723916-1.3765591-1.6694-1.7985134-.8379432-.5070594-1.7613909-.8171274-2.6724552-1.1224343-.4039346-.1398579-.8880665.0601092-1.0797143.4481405l-.2364639.4898004c-1.9011464-.649893-3.9644564-1.4033404-5.22815263-2.1413142-1.27784872-.7463057-1.6021758-1.3271624-1.65347845-1.9544401 2.91009848-4.8402745 3.53280648-9.2389551 4.08475218-13.1752118-.0365605-.9700784-.4947462-1.9425373-1.4087589-2.9840325-.4481611-.4665898-.7665913-.8593823-.9629566-1.3503729-.37562972-1.2099198-.84560915-2.4400745-1.29966707-3.6297595-.1721882-.4517114-.34437639-.9022324-.51125742-1.3515632-.07547976-.1999671-.22643927-.3731529-.41101087-.471351l-5.91454665-3.2631532.42339427-2.5662442c.97769873-.64632215 2.07864177-.76118419 3.35766985-.35053751.55430447.80581971 1.21062455 1.61104431 2.21073134 2.11512791 1.12983763.5701443 2.51618845.6909577 4.36013535.3808897.423984-.0672508.7512595-.4594482.746542-.8885442 0-2.12703073-.0689932-3.3774201-.4640826-4.86943636.238233-.1202183.4817732-.216631.7547976-.29757006.9900822 2.18178365 3.1907889 3.20542464 4.4444605 3.62737902.2535648.0839147.5454591.0327327.780154-.13688227.2352846-.16901979.3773988-.43088144.3809369-.70345561 0-.82783989.2629998-1.21349068 1.1262995-1.64913325.9287549-.46837526 2.4837558-.773087 4.0234249-1.03197295.4233943-.06725083.7512595-.45885302.746542-.88854418V1.78482519h1.5072364c.5637395 1.13909818 1.6965255 1.95027415 2.8918183 2.80668077l.3119436.22436782c1.5691534 1.13076621 3.1896095 2.39067783 4.2439674 4.25346637.1314999.23746091.3697328.40410014.6327326.44575995 1.7808506.29876033 3.9508936.8915199 5.8054548 1.584263 1.57564.5885935 2.9832195 1.3146645 3.8335462 1.9716992-.6232977 1.1920656-.8296877 2.4317425-.9470351 3.4988287-.1368071 1.2408671-.2653585 2.4132931-.9835956 3.3928937-1.4765728 1.7830398-2.9531455 3.572031-4.4285389 5.360427m8.106408-13.1698555c-.934062-.9421068-2.51324-1.8086308-4.9710497-2.72752712-1.766698-.66001038-3.7940372-1.21646639-5.7234885-1.57057475-1.2560303-2.03775974-2.9920647-3.38515695-4.5252473-4.49033214-1.5443866-1.11291201-2.6512265-1.95801097-2.8340291-2.69538957C27.5922903.28804782 27.2243265 0 26.833365 0h-3.2426812v.06487027c-.3703226.13093083-.5861475.4273106-.5896856.8248642v4.02850341c-1.46301.25769567-2.7567802.52729414-3.7798848 1.04387575-.883349.44516481-1.5343619 1.12719537-1.8645859 1.94253733-1.0496403-.50229826-2.2626236-1.32359161-2.6700964-2.55434136-.2453092-.58978385-.8574029-.69333823-1.2625169-.76177934l-.1114506-.01904449-.0465851.00714168c-.5979412.08927102-1.1115574.35351323-1.6080727.60942348-.1415245.07260709-.2836387.14580933-.3791678.19699138-.2252599.06189457-.4216252.22377268-.5389727.44456966-.1173474.22079698-.1421142.47551695-.0684035.69928963.467031 1.4140529.5112574 2.46685576.517744 4.2487053-1.1121471.1047446-1.96542216.0124979-2.53859657-.2773353-.67106222-.3386348-1.15165599-.93079917-1.71303669-1.78006411-.0902219-.13271625-.21405588-.23865119-.37798848-.31423398-1.69947392-.65048814-4.21035524-.68679169-5.71228449.77487242-.13385863.13509681-.22231147.31363884-.24766795.49575172L.00856664 13.2507946c-.05248202.3701771.14034517.7486862.46408257.9171109l6.18698141 3.4047966 1.64758158 4.4230813c.2417711.9183012.88570779 1.6408013 1.35450785 2.16631.46938975.5332455.94998355 1.1521912.96000815 1.65687-.5879165 4.1522926-1.14281069 8.0736708-3.99158187 12.6729136-.08963221.1416433-.13739674.305902-.13857611.4767072 0 1.4414293.86801721 2.6787256 2.57928485 3.6779659 1.50546733.8796171 3.64366733 1.6288985 6.28015173 2.5150621.4045243.1392628.8868871-.0607043 1.0761762-.4421891l.2335155-.458853c.5902753.2059184 1.1799609.4225494 1.618687.6891722.6663448.4029099 1.0360776.8331962 1.2353914 1.4366682.116168.356489.4570063.6088284.8326361.6135895h4.1336961c.4110108-.0089271.7777953-.3207805.8538647-.7230952l.5106678-2.5924304 2.9849885-1.996695c1.0331292.0726071 1.8522025.5897838 2.8812039 1.2396768l.1061434.0666557c1.2465954.7867752 2.7673946 1.6259228 5.0388635 1.6259228 1.380454 0 2.9478384-.7129779 4.4137968-2.0074076 1.0797144-.9528193 2.366998-2.4620946 2.366998-4.2385879.0005897-.3939827-.2848181-.7659453-.665755-.8659288l-1.57564-.3969585.0636861-.3683917c.497105-2.8281058.8562235-4.8724121-.2335155-8.1706786-.0878632-.2606714-.2948428-.4689704-.5543045-.5576463l-2.2985945-.773087 5.084859-6.159105c.9440867-1.4075064 1.2265461-3.1375787 1.3568666-4.3165512.1379864-1.2569359.2688966-2.4436453 1.0107211-3.4422904.2606411-.348157.2246702-.8623581-.0819663-1.1700455"/></g></svg>