<svg xmlns="http://www.w3.org/2000/svg" viewBox="0 0 42 49"><g fill="none" fill-rule="evenodd"><path fill="#D9E0E1" d="M42 30.4630452C42 40.6986158 33.7151653 49 23.5 49S5 40.6986158 5 30.4630452c0-4.4750588 1.58263124-8.5776965 4.21435515-11.7793158C12.6074206 14.5570645 23.5 3 23.5 3s10.8925794 11.5570645 14.2856448 15.6837294C40.4173688 21.8853487 42 25.9879864 42 30.4630452z"/><path stroke="#3D495A" stroke-width="2" d="M38 29.4630452C38 39.6986158 29.7151653 48 19.5 48 9.28483474 48 1 39.6986158 1 29.4630452c0-4.4750588 1.58263124-8.5776965 4.21435515-11.7793158C8.60742061 13.5570645 19.5 2 19.5 2s10.8925794 11.5570645 14.2856448 15.6837294C36.4173688 20.8853487 38 24.9879864 38 29.4630452zM20 40c-6.0722543 0-11-4.9277457-11-11"/></g></svg>