<svg xmlns="http://www.w3.org/2000/svg" viewBox="0 0 56 48"><g fill="none" fill-rule="evenodd"><path fill="#D9E0E1" d="M56 17.4c0-2.9709-2.3741379-5.4-5.2758621-5.4H10.27586207C7.37413793 12 5 14.4291 5 17.4v25.2c0 2.9691 2.37413793 5.4 5.27586207 5.4H50.7241379C53.6258621 48 56 45.5691 56 42.6V17.4z"/><path fill="#D9E0E1" d="M22 12V7.625C22 6.18125 23.275 5 24.8333333 5h11.3333334C37.725 5 39 6.18125 39 7.625V12"/><g stroke="#28303B" stroke-linecap="round" stroke-linejoin="round" stroke-width="2"><path d="M38 22.0769231h-7.0769231V15h-8.8461538v7.0769231H15v8.8461538h7.0769231V38h8.8461538v-7.0769231H38z"/><path d="M52 13.4c0-2.9709-2.3741379-5.4-5.2758621-5.4H6.27586207C3.37413793 8 1 10.4291 1 13.4v25.2C1 41.5691 3.37413793 44 6.27586207 44H46.7241379C49.6258621 44 52 41.5691 52 38.6V13.4zM19 8V3.625C19 2.18125 20.2 1 21.6666667 1h10.6666666C33.8 1 35 2.18125 35 3.625V8"/></g></g></svg>