<svg id="Layer_1" data-name="Layer 1" xmlns="http://www.w3.org/2000/svg" viewBox="0 0 718.32 583.21"><defs><style>.cls-1{fill:#072939;}</style></defs><path class="cls-1" d="M393.49,517.11a41.11,41.11,0,0,0-18.92-14.92c-15.53-6.41-31.39-12-46.83-18.61a256.09,256.09,0,0,1-31.61-15.81c-20.05-12.1-26.18-31.44-25.29-53.57.79-19.72,10.5-36,22.06-51C320.11,327.82,354,300.46,395,282.75c11.16-4.82,23.37-7.79,35.39-9.9,29.95-5.27,44.76,20,38.13,43.88-3.66,13.23-10.59,24.7-18.3,35.83-18.19,26.29-43.32,49.35-69.22,63.21l-12.21-17.29c2.64-1.66,5.05-3,7.31-4.63,20.48-14.49,35.59-33.16,42.35-57.55,5.16-18.62-3.61-28.19-22.57-24.41a74.33,74.33,0,0,0-24.27,9.79c-21.64,13.53-39.54,31-51.32,54-5.17,10.11-6.44,21-4.94,32.1S322,428.34,332,433.73c13.48,7.19,27.36,13.64,41.13,20.3,15,7.23,30.2,13.94,44.95,21.6,13.26,6.89,23.05,17.35,28.33,31.69.45,1.25,2.91,2.46,4.45,2.49,8.83.15,17.67-.2,26.5-.08,3.37,0,4.84-1.1,6-4.34,16.86-45.56,33.25-91.3,51.13-136.46,10-25.16,22.18-49.45,33.93-73.87,4.62-9.62,5.3-9.3,15.23-5.56,2.44.92,4.88,1.86,7.73,2.95C556.93,353.07,531.67,417,512.9,483.77c5.43-7.32,10.4-15,16.41-21.85,9-10.2,18.26-20.31,28.35-29.41,9.4-8.48,21.08-12.93,33.76-14.95,19.55-3.11,34.65,11,28,34.18-3.17,11.09-10.8,18.69-20.28,24.38-10.24,6.15-20.89,11.64-31.59,17.54.35,14.2,10.6,29.41,23,32.42a16.54,16.54,0,0,0,10.81-1.25c6.23-3.38,11.82-7.93,18-12.2l8.38,7.23c-7.93,12.73-16.63,24.23-30.3,30.63-9.53,4.47-19.23,4.58-27.72-2.48-14-11.69-23.95-26.29-28.71-44-2-7.26-.46-10.94,6.25-14.51,6.29-3.34,13.28-5.37,19.54-8.74,6.81-3.67,13.66-7.61,19.54-12.56a14.57,14.57,0,0,0,2.94-19.09c-3.32-5.37-10.1-7.36-17.8-5-10.15,3.14-18.23,9.45-25.46,17-15.25,16-25.85,35.05-35.67,54.58-4.4,8.77-8.19,17.84-12.26,26.77-.82,1.78-1.65,3.55-2.62,5.62-6.56-2.24-12.88-4.26-19.05-6.66-1-.4-2-2.48-1.95-3.78a45.62,45.62,0,0,1,1.18-7.46c-7.48,0-14.75-.1-22,.12a3.88,3.88,0,0,0-2.66,2.67c-2.26,37.94-23.88,65.36-49.75,90-41.56,39.59-90.59,65.73-146.73,78-18,3.94-36.3,6-54.52,1.71-17.82-4.22-31.33-14-36-32.74-3.08-12.33-.63-24.11,5.27-35.25,8.05-15.19,19.86-27.12,33-37.73,49.82-40.12,106.92-64.3,169.27-76.82,3.59-.72,7.25-1.08,10.88-1.58C385.8,518.11,389.23,517.67,393.49,517.11ZM252.24,671.39c6.07-.47,10.27-.44,14.34-1.16,24.74-4.4,47.36-14.31,68.61-27.4C358,628.78,377.77,611.35,392,588.42c8.7-14,13.49-29.17,11.51-46-.5-4.31-2.23-5.35-6.07-4.6-18.9,3.72-38.1,6.31-56.65,11.3-35.5,9.54-68.27,25.26-97.16,48.29-12.77,10.17-23.7,22-27.89,38.54-4.35,17.19,2,28.41,19.12,32.8C241.12,670.31,247.65,670.71,252.24,671.39Z" transform="translate(-162.59 -154.78)"/><path class="cls-1" d="M873.84,505.79c1.51,1.13,2.84,2.12,4.15,3.14.78.6,1.52,1.25,2.92,2.41-2.67,4.17-5,8.51-8,12.38-7.54,9.78-16.7,17.7-28.35,22.23-14.73,5.72-29.89-.93-32.47-14.92a33.78,33.78,0,0,1,1.82-17c3.91-10.58,9.3-20.6,13.71-31a136.35,136.35,0,0,0,7.2-20.16c3.39-13.56-6-22.44-19.44-18.61-12,3.42-20.16,12.08-27,21.89-17.17,24.53-29.86,51.5-42.18,78.65-.75,1.64-1.56,3.26-2.53,5.32l-21.1-7.1c2-10,3.66-20,5.88-29.82,7.48-33.17,16.69-65.8,31.22-96.69,5-10.62,5.11-10.57,16.35-6.71,1.07.37,2.09.85,2.53,1l-24,83.6,1.46.7c.86-1.38,1.74-2.74,2.59-4.12,12.22-19.92,25.3-39.2,42.36-55.42,10.65-10.12,22.42-18.34,37.27-21.08,16.68-3.07,28.52,7.31,26.72,24.15-.68,6.33-2.8,12.67-5.24,18.61-5.71,13.83-12.26,27.32-17.91,41.18a31.78,31.78,0,0,0-2.52,14.43c.83,8.59,9.73,12.33,16.83,7.32C862.19,515.9,867.72,510.82,873.84,505.79Z" transform="translate(-162.59 -154.78)"/><path class="cls-1" d="M676.43,416.57l14.23,8.6c-3.72,8.51-7.79,16.67-10.89,25.18-5.92,16.23-11.45,32.61-16.77,49-1.09,3.36-1,7.27-.7,10.86.81,9.26,9,14.16,17.29,9.89,5.08-2.62,9.53-6.56,14.06-10.18,2.57-2.06,4.72-4.66,7.31-7.26l6.88,6.06c-10.77,17.64-23,33.36-44.24,38.46-11.4,2.73-19.66-3-22.17-14.48-2.66-12.29-1.23-24.54,1.55-36.64,6.4-27.83,18.66-53.28,32.19-78.19A9.56,9.56,0,0,1,676.43,416.57Z" transform="translate(-162.59 -154.78)"/><path class="cls-1" d="M871.34,704.59c-5.74,3.11-11,7.44-17,8.9-15,3.68-25.79-4.5-26.62-20-.71-13.29-.25-26.64-.09-40,0-1.16,1.62-2.29,2.49-3.44.67,1.31,1.91,2.61,1.93,3.92.16,11,0,22,.12,33a49.23,49.23,0,0,0,.6,8.93c2,10.9,9.47,15.78,20.37,13.63,11.26-2.23,18.18-10.65,18.18-22.15,0-10.82-.09-21.65.1-32.47,0-1.64,1.43-3.25,2.19-4.87.84,1.68,2.4,3.35,2.42,5,.18,17.48.32,35,0,52.46-.35,22.73-19.4,35.88-40.64,28.32a14.66,14.66,0,0,1-4.48-2.11c-1.09-.91-1.62-2.5-2.4-3.79,1.46-.09,3-.53,4.35-.22,5.14,1.14,10.23,3.65,15.32,3.6,13-.14,22.12-9.74,23-22.94C871.47,708.12,871.34,705.83,871.34,704.59Z" transform="translate(-162.59 -154.78)"/><path class="cls-1" d="M685.6,381.53c-.11-11.93,7.56-20.68,18.16-20.71,9.91,0,17.17,7,17.2,16.74,0,11-7.46,20-16.67,19.91C692.33,397.4,685.69,391.74,685.6,381.53Z" transform="translate(-162.59 -154.78)"/><path class="cls-1" d="M493.66,198.14C504,183.38,514,169.11,524,154.89c.16-.23.93,0,1.85,0,.15,1.48.41,2.89.41,4.3,0,21,.07,42-.07,63,0,1.57-1.3,3.13-2,4.7-.63-1.67-1.76-3.34-1.79-5-.18-9.16-.09-18.33-.09-27.5V164.5l-.88-.38c-1.08,1.52-2.21,3-3.24,4.58-7.17,10.83-14.39,21.64-21.44,32.55-2.25,3.49-3.83,3.43-6.07,0-7.16-11-14.48-22-21.75-32.95-.9-1.35-1.89-2.64-3.47-4.83-.15,2.53-.32,4.08-.32,5.63q0,26,0,52a19.43,19.43,0,0,1-.32,4.46,1.77,1.77,0,0,1-3.43-.27,14.34,14.34,0,0,1-.19-3.48c0-20.67,0-41.34,0-62,0-1.65.82-3.29,1.25-4.94,1.45,1.14,3.28,2,4.27,3.45C475.72,171.35,484.5,184.5,493.66,198.14Z" transform="translate(-162.59 -154.78)"/><path class="cls-1" d="M762.71,680.53a25.88,25.88,0,0,0,13.79,26.69A25.4,25.4,0,0,0,806,702.46c.58-.59,1-1.45,1.66-1.83a30.53,30.53,0,0,1,3.79-1.51c-.23,1.43,0,3.28-.77,4.23-7.91,9.41-18,12.81-30,10-12.18-2.9-19.85-10.76-22.25-23C756,677.79,758,666,767.91,656.87c8.63-8,18.79-9,29.29-4.58,10.26,4.28,14.68,13,15.8,23.63.4,3.87-1.91,4.32-5,4.31-13.83-.06-27.65,0-41.48,0C765.26,680.23,764,680.42,762.71,680.53Zm45-5c1.22-9.84-8.93-20.7-21.69-20.94-11.46-.22-22.63,10-22.54,20.94Z" transform="translate(-162.59 -154.78)"/><path class="cls-1" d="M535.22,649.92c17.26.07,30.06,14,29.95,32.51-.1,18.21-13,31.76-30.19,31.77S504.35,700,504.58,682C504.81,663.56,517.93,649.85,535.22,649.92Zm25.18,32.22c0-14.19-8.65-25.59-20.71-27.37-12.78-1.89-23.82,4.37-28.34,16.06-4.86,12.56-.86,27.54,9.36,34.49,8.09,5.51,16.81,6.31,25.49,1.85C556.24,702,560.26,693.08,560.4,682.14Z" transform="translate(-162.59 -154.78)"/><path class="cls-1" d="M697.54,662c7-7.68,14.21-12.2,23.76-12,12.05.22,20.17,7.12,20.74,19.11.63,13.45.27,27,.18,40.44,0,1.12-1.34,2.23-2.05,3.34-.87-1.36-2.46-2.7-2.49-4.07-.22-9.82-.12-19.64-.13-29.46,0-2.17,0-4.33,0-6.5-.24-14.15-10.31-21.53-24-17.56-10.6,3.08-16.26,10.59-16.26,21.61,0,10.32.11,20.64-.11,31,0,1.69-1.58,3.36-2.42,5-.75-1.62-2.12-3.24-2.14-4.87q-.24-25.47,0-50.94c0-1.67,1.63-3.32,2.51-5a42,42,0,0,1,2.08,4.91C697.61,658.15,697.44,659.51,697.54,662Z" transform="translate(-162.59 -154.78)"/><path class="cls-1" d="M580.35,674.12c0-6.17-.13-12.33.11-18.49,0-1.24,1.5-2.43,2.31-3.65.77,1.26,2.21,2.5,2.23,3.77.18,11.16.33,22.32.07,33.48-.48,20.42,17.76,22.78,29.64,18,6.95-2.79,9.46-9.06,9.56-16.19.15-10.83.06-21.66.07-32.48,0-1.17-.3-2.46.1-3.47A13.74,13.74,0,0,1,626.8,652c.76.93,2.18,1.87,2.17,2.8-.13,14.13-.17,28.28-.85,42.39-.26,5.35-3.7,9.47-8.33,12.41-9.64,6.13-24,5.39-32.79-1.87-4.87-4-6.36-9.65-6.58-15.62s0-12,0-18Z" transform="translate(-162.59 -154.78)"/><path class="cls-1" d="M546.93,240.56a46.68,46.68,0,0,1,5.43,1.64c17,7.41,32.18-3.8,30.17-23-1.15,1-2.07,1.74-2.93,2.54-5.18,4.77-11.17,7.06-18.27,6.3-8.3-.87-14.36-5.9-14.85-14.23-.72-12.29-.44-24.65-.42-37,0-.93,1.25-1.86,1.93-2.79.52,1.08,1.5,2.15,1.51,3.24.13,8.83,0,17.67.13,26.5a53.64,53.64,0,0,0,1,10.91c1.38,6.11,4.93,8.88,11.19,9.71,10.86,1.44,22-8,21.25-18.6-.64-9.46-.19-19,0-28.49,0-1.11,1.28-2.19,2-3.29.65,1,1.86,2,1.86,3-.11,17,.58,34.06-.85,50.94-1.46,17.38-23.33,26.38-37.77,16.46a12.3,12.3,0,0,1-1.95-2.11Z" transform="translate(-162.59 -154.78)"/><path class="cls-1" d="M487.29,661.19c0,9.49.15,19,0,28.48-.25,12.33-7.66,21.6-18.79,23.92-12.62,2.64-24.25-3-29.22-14.48-.57-1.31.14-3.16.25-4.76,1.28.95,3,1.63,3.76,2.9,7.28,12.84,20.54,16.38,31.54,8.21,5.55-4.11,7.59-9.92,7.6-16.59q0-26.73,0-53.47a11.21,11.21,0,0,1,.07-3.48,36.16,36.16,0,0,1,2.36-4.8c.83,1.53,2.34,3,2.37,4.58.22,9.83.11,19.66.11,29.49Z" transform="translate(-162.59 -154.78)"/><path class="cls-1" d="M653.18,665c3.86-4.06,6.89-8.76,11.19-11.33,4-2.39,9.3-2.67,14.1-3.45.81-.13,2,1.93,3,3-1.21.42-2.57,1.44-3.6,1.17-5.49-1.43-9.9.74-13.72,4.12-6.87,6.08-11,13.6-11,23.08.06,8.81.12,17.63-.09,26.43,0,1.62-1.37,3.21-2.11,4.8-.87-1.5-2.48-3-2.49-4.5q-.27-25.93,0-51.87c0-1.48,1.72-2.93,2.63-4.4.69,1.47,1.8,2.9,2,4.43A75.71,75.71,0,0,1,653.18,665Z" transform="translate(-162.59 -154.78)"/></svg>