<svg xmlns="http://www.w3.org/2000/svg" xmlns:xlink="http://www.w3.org/1999/xlink" viewBox="0 0 2560 1440"><defs><style>.cls-1{fill:#26c8d0;}.cls-2{fill:none;}.cls-3{clip-path:url(#clip-path);}.cls-4{fill:#ea0029;}.cls-5{fill:#2d2a26;}.cls-6{fill:#fff;}.cls-7{clip-path:url(#clip-path-2);}.cls-8{fill:#f05b43;}.cls-9{fill:#231f20;}</style><clipPath id="clip-path"><rect class="cls-1" y="-2538" width="2560" height="1440"/></clipPath><clipPath id="clip-path-2"><rect class="cls-2" width="2560" height="1440"/></clipPath></defs><g id="_16-9" data-name="16-9"><rect class="cls-1" y="-2538" width="2560" height="1440"/><g class="cls-3"><g id="_KV_" data-name="&lt;KV&gt;"><path class="cls-4" d="M129.12-947.86c11.23-7.82,30.45-5.82,52.49,10.86-16.5-60.84-32.53-152-2.61-217.5,20.35-44.59,57.54-85.36,89.74-118.58-40.75-11.36-76.42-17.68-87.16-18.82-15.23-1.62-48.72,4-63.62-7.5-12.9-9.95-11.87-59.19-23.26-90.88-7-.9-12.54-.92-16-3.69-8.64-6.83-8.28-25-4.82-32.76s12.26-14.55,19.35-17.13c9.14-3.33,51.5-2.26,70.55,2.5,11.37-12.88,28.22-18.2,34.81-11.2,9.93,10.56,4.53,43.77,6.09,53.55s9.8,34.07,8.3,43.23c-1.3,7.93-10.57,22.17-20,35.74,36.92,1.61,81.31-1.15,125.44-6.21,4.32-5.61,7.48-10.6,9-14.87,7.35-20.31-2.55-40.52-11.4-61.7-20.85-49.93-14.22-73.47,18.13-99.73,48.84-39.65,141.71-52.21,185.51-113.09-23.47-1.53-51.21-6-67.37-14.75-31.2-16.95-70.94-65.67-82.59-98.32-16.83-47.17-22.23-127.75,5.13-204.83s91.36-139.08,113.51-154.64c10.26-7.21,37.14-15.32,68.12-17.74,49.95-19.69,120.29-46.3,165.45-37.57,73.06,14.11,143.78,105.25,156.91,186.55,4.21,26.07-4.9,62.26-40.51,81.89-2.37,13.55-6.29,24.43-6,30.68,1,22.12,13.8,51.26,2.63,90-7.3,25.32-23.8,54-51.13,76.6,25.41.16,47.31-3.24,68.33-18.6,1.17,10.44-2.2,25.6-14.51,38.32,111.08-14.1,195.24-39.43,272.59-57.52,64.07-15,126.93-29.32,187.51-43.52.07-2,.18-4,.44-6,20.22-3.33,58.84-9.15,112.91-21.3,17.19-4.28,34.19-8.56,50.78-12.87,141.71-36.84,270-64.08,280-102.87,8.44-32.8-7.83-95.11-2.38-155.72,3.13-34.89,24.28-72.17,22.69-109.17-2.82-65.58-18.78-121.57-8.51-130.54,15.64-13.66,60.85,16,74.9,71.5,11.51,45.46-5.66,88.59,2.65,136,17.36,13.81,36.84,17.39,69,7.44,23.46-7.26,129.5-76.92,214.07-167.32,107.52-115,160.58-228.24,177.23-229.46,19.05-1.4,32.27,30,8,92.33-30.36,74.39-153.88,163.95-181.61,251.46,63.43-42.69,99.54-75,133.63-103.54s66.17-53.29,94.07-77.17c71.6-61.29,93.37-93.7,108.64-94.33,22.82-.93,30.94,54.41-6.29,93.09-41.59,41.48-88.61,70-141.11,113-44.06,36.1-86.72,80.83-127.67,128.05,60.83-28.21,138.31-49.53,217.9-83.18,58.95-24.92,95.11-49.35,113.24-44.22,12.57,3.55,7.59,45.46-30,65.68-37.31,20-58.08,18.53-108.58,39.93-18.72,7.93-119.38,60.35-183.1,94.25,25.27-.56,54.36.72,80.22,4.64,33.64,5.09,62,14.37,85.2,18.31,60.62,9,133.65,18.21,136.54,23.35,6.89,12.3-8.53,36.39-72.44,35.27-48.3-.19-107.53-17.41-124.31-21.43-20.64-5-52.74-3.15-64.06-.8-25.45,5.27-181,117.16-230.58,127.5-36.47,8.8-69.19,9.47-118.69,17.57-109.13,17.83-572.52,90.73-869.25,162.47-98.25,23.75-170.17,51-229.08,93.3-13.2,9.49-60.82,62.79-114.47,117.4-66.46,67.66-140.36,139-149,150.91-11.82,16.32-16.3,48.72-11.12,60.18,4.16,9.19,48,24.78,83.33,58.2,59.76,56.5,136.87,167.38,160,272.54C795-684,775-588,786.9-529.23c56.72,87.13,149,111.64,205.12,218.79C1053.75-192.58,1062.66-9.74,1103.63,92c36.17,89.77,123,206.26,127.93,275.64,2.3,32.55-42.78,80.74-51.84,81.12s-47-59.64-63.34-123.33c-14.19-55.31-10.75-120.24-45.46-213.89C958.64-191.38,866.31-204.21,820.41-273.14c-38.83-58.31-91.07-190-191-324,4.41,56.46,2.86,106-3.55,119.23-11.67,24.08-61.9,44.67-85.67,36.33C507.14-451,394.34-546.13,347.35-602.87c-42.19-51-92.78-151.48-164.75-228.69,12.86,61.64,32.17,168.22,20.26,179.58-14.27,13.62-68.86-21.63-79.42-75.49-13.94-71,3.08-97.16-.38-177.73C115.69-895.52,99-875,94.69-865.75c-2.86-.82-8.47-7.17-10.87-12.08C99.87-898.6,113.28-936.83,129.12-947.86Z"/><path class="cls-5" d="M202.86-652c-14.27,13.62-68.86-21.63-79.42-75.49-13.94-71,3.08-97.16-.38-177.73C115.69-895.52,99-875,94.69-865.75c-2.86-.82-8.47-7.17-10.87-12.08,16.05-20.77,29.46-59,45.3-70,11.23-7.82,30.45-5.82,52.49,10.86,9.27,5.35,22.58,22.51,28.22,38.65,13.22-66.35,37.73-98.33,76.65-111.46,47.6-16.07,169.63,23.58,234,59.8-17.22-25.89-37.84-51.65-61.55-71.52,30.65,16.2,77.91,64.83,115.1,148.86,38.23-36.53,67.84-141,73.51-220.39,44.59,58.58,87.17,134.91,103.36,208.46C795-684,775-588,786.9-529.23c56.72,87.13,149,111.64,205.12,218.79C1053.75-192.58,1062.66-9.74,1103.63,92c36.17,89.77,123,206.26,127.93,275.64,2.3,32.55-42.78,80.74-51.84,81.12s-47-59.64-63.34-123.33c-14.19-55.31-10.75-120.24-45.46-213.89C958.64-191.38,866.31-204.21,820.41-273.14c-38.83-58.31-91.07-190-191-324,4.41,56.46,2.86,106-3.55,119.23-11.67,24.08-61.9,44.67-85.67,36.33C507.14-451,394.34-546.13,347.35-602.87c-42.19-51-92.78-151.48-164.75-228.69C195.46-769.92,214.77-663.34,202.86-652Z"/><path class="cls-6" d="M505.56-1202c1.87-3.4,3.66-6.56,5.33-9.53,11.65,9.6,49.07,25.19,80,54.43,18,17,37.49,38.9,56.65,64.08,44.59,58.58,87.17,134.91,103.36,208.46C795-684,775-588,786.9-529.23c56.72,87.13,149,111.64,205.12,218.79,46.73,89.22,63.19,215.64,86.21,315.94C1034-146.35,1016.77-233.24,978.15-303.6,934.86-382.47,797.9-470.06,774.25-529c-25.74-64.18,12.23-310-134-507.81.58-3.23,1.1-6.44,1.63-9.66h0C601.94-1120.61,559.9-1160.85,505.56-1202Z"/></g></g></g><g id="_16-9-2" data-name="16-9"><g class="cls-7"><rect class="cls-1" width="2560" height="1440"/><path class="cls-8" d="M2154.39,945.75c31.22,118.18,82.5,295.44,82.5,295.44s-64.66,15.61-119.29,26.76S2121,965.82,2154.39,945.75Z"/><path d="M1793.79,1359.11c30,42.15,138,188.21,182.32,248.87,9,12.36,10.15,23.21,4.85,32.58-4.53,8-15.12,11.29-30.87,17.59-16.53,6.62-41.75,12.28-50.44,16.73-12.55,6.41-12.83,23.41,1.67,23.69s124,.06,128.23.06,11.11-2.13,10.28-7.7c-.39-2.59-10.3-31.66-18.55-72.75-14.37-71.62-30.87-172.48-36-202.27,40.38,45.73,128,156,169.63,211.13,23.09,30.6,32.67,89.38,37.44,90.82,17.56,5.29,26.93,12.76,47,14.43,17.85,1.49,44.87-4.18,52.4-8.64,2.68-1.59,1.11-11.7,0-14.77s-5.78-9.34-11.43-12.26c-5.48-2.85-14.58-4.44-22.16-8.78-11.57-6.64-40.23-26.25-49.18-40-21.35-32.81-44.31-194.63-56.15-263.43C2076.24,1353.61,1851.9,1345.31,1793.79,1359.11Z"/><path d="M2366.28,633.74c4.66-54.63,12.76-200.82-39.08-263.26-47.83-57.59-231.28-144.33-352.86-160.54-62.71-8.36-147.31,7.68-208.2,99.5-47.31,71.36-89.71,213.84-88,271.53,78.13,46.4,184,138.41,273.39,169.68,57.61,20.17,120.83,29.11,172.74,49.88,90.22,36.08,169.23,56,196.28,60.29C2347.79,799.65,2362.31,680.17,2366.28,633.74Z"/><path class="cls-8" d="M1904.66,790.79c23.63-50.74,12.49-78.73-1.11-104.8-13.38-25.64-26.76-39-27.87-56.86-2.83-45.23,32.43-107.49,84.21-248.58,47.94,13.38,136.53,37.32,177.22,52.37,0,7.52,1.12,25.36,1.12,25.36,15.05,8.64,47.1,25.64,59.36,32.05l11.15-13.1c28.71,17,61.88,39.3,84.73,54.35-8.64,25.64-20.21,75.95-25.64,103.54-8.78.84-.84,5-.84,5-7.24,37.35-33.39,84.7-79.71,106.05-27.84,12.84-50.17,10.59-74.7,13.94C2099.62,776,1953.58,796.22,1904.66,790.79Z"/><path class="cls-6" d="M2161.3,508.63c22.85,10.75,22.91,67.82-3,98.21,6.83-.84,20.17-13.79,25.14-19.37s11.13-22.37,11.09-37.46S2180.48,507.42,2161.3,508.63Z"/><path d="M2142.24,546.66c-8.56-3.75-20.12,3-25.19,13.5-5.2,10.76-3.27,25.71,4,29.18s17.7-4.86,22.21-15.62S2147.79,549.09,2142.24,546.66Z"/><path d="M2151.61,597.32c5.2-10.76,23.94-38.52,29.84-36.44s1.63,15.49-5.55,23.25C2167.22,593.5,2158.55,595.58,2151.61,597.32Z"/><path class="cls-8" d="M2205.68,1407.31c-11.5-76.81-57.74-322.42-71.36-404.7,9.59-12.63,30.56-44.11,29.06-57-7.3-62.67-22.89-135.78-30.59-162.94-5.39-19-22.42-36.23-48.5-33-37.2,4.55-64.92,11-122.07,28.84-11.17,3.49-20.91-7.27-34.7-4.59-16.43,3.18-29.12,5.36-39.44,7-21.91,4.31-44,10.15-54.18,18.16-8,6.3-16.8,25.56-26.57,52.52-8.39,24.24-18.75,55-26.41,77.87C1745,881.36,1694.77,826.4,1675,811.13c-10,8.78-32.19,32.61-46,46.83,8.86,36.55,28.15,63.77,41.81,89.88,24.66,47.17,50.62,99.08,90.58,111.07a48.17,48.17,0,0,0,27.9-.26c-21.43,69.93-72.68,222.85-98.14,295.15C1747.47,1359.37,2134.88,1400.62,2205.68,1407.31Z"/><path class="cls-6" d="M2011.11,916.13c29.93-18.78,68.54-51.9,112.48-71.34-.19-1,.24-3.31.43-5.92C2083.31,856,2036.33,895,2011.11,916.13Z"/><path class="cls-6" d="M2001.66,924c4.45-32,17.55-136,11.7-158.31-1,26.48-12.54,129.33-17.56,161.1C1997.4,926.1,1999.43,925.2,2001.66,924Z"/><path class="cls-6" d="M2011.34,939.27c21.74-5.22,32,36.17,75.46,38.47C2041.86,965,2031.83,924.22,2011.34,939.27Z"/><path class="cls-6" d="M1899.71,995.09c31.57,13,118.11,28.22,149.47,21.53C1998,1016.62,1924.8,1000.73,1899.71,995.09Z"/><path class="cls-6" d="M1888.86,780.81c-14.74,40.74-60.81,197.09-70.12,227.07l6.16-6.43c9-28.2,56.36-185.31,68.09-221.31Z"/><path class="cls-6" d="M1696.32,866.53c11.71,37.9,36.37,112.88,55.88,133-21.18-37.91-42.08-101.74-51.28-130.16A11.51,11.51,0,0,0,1696.32,866.53Z"/><path class="cls-6" d="M1631.18,855.72c14.65-8.52,32.91-28.22,38.38-33.3a9,9,0,0,0-2.92-3.37C1656.17,829.41,1641.76,844.75,1631.18,855.72Z"/><path d="M1825.23,1052.22c-1.67-6.13-2.65-8.5-3.35-12,3.77-8.64,10.87-20.63,13.38-29.27-4.46,6.27-13.79,23.28-16.58,28.57,1,5.3,3.62,12.68,4.6,16.31"/><path d="M1876.62,978.57c.45-1.43,1.08-3.27,1.7-5.68-21.18,8.35-38.91,15.24-47.17,18.23-3.76,4.39-14.84,16.93-19.58,23.48a44.15,44.15,0,0,0,4.37,14.85c.51-1.6.59-2.4,1.1-4-.94-2.93-1.67-6.06-2.51-9.62,3.56-4.91,13.38-15.68,18.08-21.11C1845.36,989.86,1869.51,981.36,1876.62,978.57Z"/><path class="cls-6" d="M1819.1,1034.84c-.39-1.18-.81-2.47-1.33-4-13.12,21.88-33.79,29.89-55.14,28.39C1781.49,1064.31,1805.07,1057.59,1819.1,1034.84Z"/><path d="M1821.47,1037.87c-1.26-3.76-2.51-7.25-3.63-10.45,3.76-6.69,11.57-17.56,14.77-23.69-4.87,4.32-15,18.22-17.76,22.82,1.67,5.43,3.13,9.09,4.8,13.69"/><path d="M1872.54,1025.61c-5.64,4.39-21.32,16.72-23,18.39s-6.69,9.2-6.9,11.29.42,15,.62,19.86c-2.09.76-6.48,2.3-7.73,2.72-4-8.78-8.15-17.35-10-21.95,3.9-8.85,10.31-20.42,11.91-29.06-3.76,5.85-12.75,22.37-15.47,28.85,3.35,7.73,10.18,21.25,12.27,25.43,4.18-1.32,8.64-3.06,11.77-4.32.21-6.9-.63-18.19-.21-20.07s4.18-7.94,6.48-10.45,16.52-13,22.37-18Z"/><path class="cls-8" d="M2190.49,532.28c6.27,16.93,7.94,38.25-12.9,61.54,11.89,27.51,34.73,48.07,63.68,53.48,49.51,9.25,98.13-29.32,108.59-86.16s-21.17-110.4-70.68-119.65c-43.32-8.1-89.74,20.34-104.79,70.72C2180.91,519.05,2188,525.5,2190.49,532.28Z"/><path class="cls-6" d="M2306.77,452.2l-3.82,7.19L2328,494.23l12.27,49.06-22.58,66.33,7.18,5.06a115.1,115.1,0,0,0,25-53.54C2358.22,515.79,2339.74,472.53,2306.77,452.2Z"/><path d="M2191.74,534.16c5.26,14.37,9.82,31.15-11.3,57.16,11.31,26.76,33.34,46.79,61.32,52,47.49,8.87,94.15-28.24,104.21-82.9s-20.26-106.15-67.75-115c-41.9-7.83-85.23,20.38-100.49,68.25C2184.42,519.11,2188.6,525.59,2191.74,534.16Z"/><path class="cls-8" d="M2274.75,464.86c-38.4-7.18-76.16,23-84.34,67.33,0,.19,0,.37-.09.56,2.67,6.12,4.19,12.35,4.2,17.26a74.37,74.37,0,0,1-3.13,20.5c6.81,28,26.87,50,53.77,55,38.41,7.18,76.17-23,84.34-67.33S2313.16,472,2274.75,464.86Z"/><ellipse cx="2259.37" cy="545.04" rx="77.21" ry="65.68" transform="translate(1328.56 2674.7) rotate(-79.95)"/><path class="cls-8" d="M2194.82,533c-7.73,41.93,14.91,81.33,50.57,88a57,57,0,0,0,25.58-1.1c6-28.23,15.28-66.86,22.5-88.29-19.59-12.9-46.75-31.12-72.19-46.77C2208.23,496.36,2198.46,513.18,2194.82,533Z"/><path d="M2205.12,519.53c10.45-8.16,19.15-8.79,27.59-4.39,15.4,8,21.74,32,23.41,48.08,3.14-13.8-5-43.07-21.95-51.85C2222.87,505.52,2209.72,509.7,2205.12,519.53Z"/><path class="cls-6" d="M2245.06,643.85c-13.51,33.86-25.54,54.56-39.27,69.4-28.47,30.77-61.5,35.65-87.53,46.2,22.35-2.4,43.34-1.42,69-13.26,44-20.28,67.7-58.59,78.45-100.35.16-.62.32-1.28.48-1.92A76.47,76.47,0,0,1,2245.06,643.85Z"/><path class="cls-6" d="M2251.13,626.31a62.32,62.32,0,0,0,19.68-1.41c7.66-32.84,16.81-75.95,22.66-93.32-5.06-3.33-10.65-7-16.57-11C2263.35,564,2260.12,596.25,2251.13,626.31Z"/><ellipse class="cls-8" cx="2045.73" cy="442.03" rx="107.37" ry="106.29" transform="translate(179.28 1389.01) rotate(-39.09)"/><path class="cls-6" d="M2046,335.32c-56.63.4-103.07,44.65-107,100.24h4.54s33.57-59.49,36-60,50.43-22.53,50.43-22.53l47.39-.4,3.4-6.07,2.67-4.75A106.11,106.11,0,0,0,2046,335.32Z"/><path class="cls-8" d="M2083.54,341.83l-6.07,10.82,52.67,49.05-3.34,92.81,12.45-1.63a106.81,106.81,0,0,0,13.42-51.6A105.45,105.45,0,0,0,2083.54,341.83Z"/><ellipse cx="2045.26" cy="442.39" rx="102.5" ry="101.19" transform="translate(205.58 1439.58) rotate(-40.66)"/><path class="cls-8" d="M2119.59,412.05c18.83,41.32,1.77,89.68-38.1,108s-87.49-1.5-106.31-42.83-1.74-88.49,38.13-106.82S2100.76,370.73,2119.59,412.05Z"/><path d="M2115.3,413.49c17.8,39.07,1.79,84.74-35.77,102s-82.46-1.55-100.26-40.62-1.76-83.62,35.8-100.88S2097.5,374.41,2115.3,413.49Z"/><path class="cls-8" d="M2120,426.77c-34.56-12.09-84.24-28-124.23-39.91-23.19,21.45-30.85,56.5-16.49,88,17.8,39.07,62.71,57.88,100.26,40.62C2112.89,500.16,2129.23,462.41,2120,426.77Z"/><path d="M2155.57,607.83c16.44-10.31,31.15-26.92,34.78-45,3.82-19.14-4.07-44.3-23.69-51-22-7.52-49.62,4.46-66.9,23.14-12.76,13.79-7.52,35.39,3.07,50.17-20.35-11.15-20.75-40.22-8.36-54.35,17.84-20.35,54-32.59,74.42-24.25,27.31,11.15,31.71,41.86,27.87,58-4.46,18.67-18.56,35.08-35.84,45.4,5.6,3.82,8.4,5.86,10.95,6.87s6.62,3.32,7.13,8.66c-2-3-6.37-4.58-9.42-5.6S2158,611.67,2155.57,607.83Z"/><path class="cls-6" d="M2131,984.22c-23.05,11.8-37.46,21.56-55.74,53,1.1,27.51,14.14,180.4,20.37,237.43,40,9.48,73.75,17.51,91.24,21.78.33,1.91.67,3.8,1,5.69-11.3-2.89-28.39-7.11-49.12-12.14-5.35,17.16-23.56,74.77-34.07,107.37,50.34,5.26,82.67,8.28,101,10C2193.56,1326.35,2142.23,1049.18,2131,984.22Z"/><path class="cls-6" d="M2163.38,942.74c-9.65-62.35-15.68-112.93-29.33-162.54-5.25-19.06-23.68-33.72-49.76-30.52-34.74,4.25-61.23,10.17-111.14,25.46,26.22-4,76.71-17.36,110.73-18.63,14.62-.55,19.37,3.51,23.41,18.11,10.44,37.74,24.8,140.17-19.86,208.76-26.13,40.14-63.76,57-93.16,64.52-23.55-1-92.36-4.32-109.68-5.15-14-15-11.84-49.65-4.94-65.33,29-11.42,102.63-40.45,122-53.41-21.64,8.43-82.07,32.63-126,49.92-11.55,25.09-8.15,63.93,6.69,74.25,30.52,1.26,153,9.62,176,6.27,26.74-3.88,88.79-60.14,101.2-84.67C2167.22,954.67,2164.68,951.15,2163.38,942.74Z"/><path class="cls-8" d="M2075.84,1048c.1,1.53.21,3.18.33,4.92,24.07-12.34,65.72-47.49,72.39-66.46-.5.65-1,1.31-1.55,2C2136.87,1000.9,2102.7,1033.75,2075.84,1048Z"/><path class="cls-6" d="M2138.75,1289.94c-12.93-3.14-27.28-6.6-42.53-10.25-103.93-24.92-249.49-59-271.27-63.86,2.79-20.9,14.21-119.57,17.28-138.8a12.17,12.17,0,0,1,3.76-.21c-2.78,23.41-14.07,120.62-16,135.67,25.83,5.68,165.93,38.5,266,62.2,15.94,3.77,30.87,7.32,44.16,10.48Z"/><path class="cls-6" d="M1701.16,876.69q32.76,45.84,65.45,91.72c7,9.81,13.59,20.71,21.69,29.71,3.34,3.72,7.11,2.37,7.11-3.76,0-4.81.94-35.44.52-43.8,5.43,8,15.78,22.79,19.54,27.8-8.15-15.46-19.86-33.86-25.5-42.85l3.63-10.94c14.61-7.3,21.94-12.34,34.41-21.88-18,8.78-22.57,10.87-29.26,14.64,13-37.63,35.12-99.51,40.13-107.45,4.62-7.31,13.51-17.39,24.34-23.2-12.38,3.43-23.07,7.51-29.32,12.41-8,6.3-16.8,25.56-26.57,52.52-8.39,24.24-18.75,55-26.41,77.87C1745,881.36,1694.77,826.4,1675,811.13c-3.25,2.84-7.77,7.27-12.86,12.42C1671.93,837,1691.82,863.63,1701.16,876.69Z"/><path d="M2128.7,493.22c-2.43,4.51-7.3,17-13.18,23.6,32.62-16,49.51-12,68,2.42C2191.31,495.19,2165.14,480,2128.7,493.22Z"/><path d="M2139.11,551.17c-5.9-1.74-15.27,5.55-18.39,11.8s-2.08,21.51,2.43,22.9,14.92-11.11,16-14.23C2141.62,564.12,2141.8,552,2139.11,551.17Z"/><path d="M2156.46,593.85c5.9-8.33,20.82-29.15,23.25-28.11s-3.12,10.76-8,16.66S2161,591.42,2156.46,593.85Z"/><path class="cls-6" d="M1994.6,450c5,24.78,44.62,51.23,95.3,40.21C2069.51,478.6,2022.69,460.42,1994.6,450Z"/><path d="M2018.55,459.06c-3.44,13.42,5.2,23.75,15.71,27.25,9.94,3.31,23.51,1.32,29.59-8.73C2049.78,471.4,2033.49,464.85,2018.55,459.06Z"/><path class="cls-6" d="M2195.73,537.45a56.36,56.36,0,0,1,1.26,25.81c8.41,6.43,16.56,12.88,19.69,14.62,7.05,3.92,31.63,9,41.07,2.47C2242.31,568.47,2214.29,547.07,2195.73,537.45Z"/><path d="M2231.08,560.33c-12.21-8.82-25.2-17.61-35.35-22.88a56.36,56.36,0,0,1,1.26,25.81l6.33,4.86C2215,572,2225.12,568,2231.08,560.33Z"/><path d="M2084.76,589.75c6.62,20.88,8.7,36,6.27,51.19s-13,29.93-28.94,43c16.59-7.16,33.19-25.22,35.41-44.06S2092.83,601.57,2084.76,589.75Z"/><path class="cls-6" d="M2142.24,546.66c-8.56-3.75-20.12,3-25.19,13.5s-3.5,24.57,3.23,28.71c-3.23-8-2.73-16.79.3-24.94C2123.45,556.22,2130.71,548.86,2142.24,546.66Z"/><path class="cls-6" d="M2170.56,573.67c3.41-4.55,10.73-11.33,13.08-10.71a3.71,3.71,0,0,0-2.19-2.08c-5.9-2.08-24.64,25.68-29.84,36.44C2158.57,588.72,2167,578.38,2170.56,573.67Z"/><path d="M2011.69,503.43c8.64,8.36,42.36,15.05,64.66,2.79C2058,523.22,2018.1,516,2011.69,503.43Z"/><path d="M2097,458.84c-7.25-15.33-20.07-34.29-36.24-40.42-13.27-5-34,.84-51.28,10,14.77-13.1,34.86-19,52.4-14.5C2079.14,418.42,2095.58,445.46,2097,458.84Z"/><path d="M2204,580.08c1.68,10.59,16.17,25.64,31.78,27.31C2221.28,612.41,2201.22,593.46,2204,580.08Z"/><path class="cls-6" d="M2146.14,606.56c2.55,3.82,9.17,12,10.19,14.26C2153.27,620.31,2146.65,613.43,2146.14,606.56Z"/><path class="cls-6" d="M2125,604.52c.77,4.33,4.08,9.42,5.1,11.21s3.82,5.85,4.33,7.64c-3.57-1.53-6.37-5.35-7.64-7.39S2124.24,606.81,2125,604.52Z"/><path d="M2096.73,633.55c12.74-4.84,23.32-5.72,26.7-5.36,8.58.9,18.72,8.37,25.21,8.63,5.35.21,18.62-5,22.75-4.66,5.07.41,6.58,14.11,1.24,21.77-2.68,3.85-20.12,4.07-25.21,2.29-2.46-.86-8.55-5.17-13.5-9.42-5.32-4.57-9.61-9.06-15.28-8.66a164.53,164.53,0,0,1,13.56,11.7c5.52,5.25,9.58,9,13.18,11,2.3,1.22,24,2.67,29.71-3.85,7.95-9,5.49-27.58-2.2-29-6.88-1.27-20.63,6.88-24.71,6.37s-16-9.91-23.11-10.93-21.46,3.54-29.1,8.13"/><path d="M2149.71,677.62c-10.19,10.18-15.28,15.28-29.29,21.14s-31.84,12.48-42,15.79c11,0,33.57-6.39,45.34-11.46C2138.5,696.72,2146.91,686.79,2149.71,677.62Z"/><path class="cls-2" d="M1599.58,742.77c.1,2.07.62,8.18,1,10.53,3.65,2.2,17.11,9.61,24.73,14.28,0-1.54,0-3.28.12-5.3l-17.69-28C1605.15,736.94,1602.34,739.86,1599.58,742.77Z"/><path class="cls-2" d="M1591.78,725.45c2-2,4.24-4.15,6.48-6.28l-2.13-3.38C1594.83,718.77,1593.34,722.09,1591.78,725.45Z"/><path d="M1625.46,762.28c.09-1.67.24-3.52.53-5.68,1.47-1,3.47-2.28,5.6-3.65l-16.67-26c-2,2-4.42,4.5-7.15,7.31Z"/><path d="M1599.24,705.16a1.43,1.43,0,0,1,.67,1.84c-.89,2.07-2.2,5.19-3.78,8.79l2.13,3.38c1.74-1.66,3.5-3.29,5.22-4.83a1.43,1.43,0,0,1,1.87,0c.86.7,2,1.65,3.24,2.72l-181-282.28a1.47,1.47,0,0,0-1.87-.52l-3.91,1.92a1.47,1.47,0,0,0-.6,2.09l165.25,262.24.17-.25A71,71,0,0,1,1599.24,705.16Z"/><path class="cls-8" d="M1617.21,724.61c-2.52-2.29-5.88-5.24-8.62-7.58l6.33,9.9Z"/><path class="cls-8" d="M1582,776.17c3.37-1.64,6.45-2.23,7.1-7.1s.32-34.54.24-38.38c.84-1.73,1.67-3.49,2.49-5.24-3.71,3.63-6.89,6.74-8.76,8.2C1582.73,744.12,1582,766.41,1582,776.17Z"/><path class="cls-8" d="M1646,775.32c-.91-3.65,5.16-15.93,8.44-24.52-3.78-1.75-8.94-4.46-10.87-4.51-1.34,0-7,3.46-12,6.66l11.15,17.45-7.45,7.46-9.83-15.58c-.11,2-.11,3.76-.12,5.3-7.62-4.67-21.08-12.08-24.73-14.28-.41-2.35-.93-8.46-1-10.53,2.76-2.91,5.57-5.83,8.19-8.53l-9.51-15.07c-2.24,2.13-4.44,4.28-6.48,6.28-.82,1.75-1.65,3.51-2.49,5.24.08,3.84.42,33.52-.24,38.38s-3.73,5.46-7.1,7.1c0-9.76.78-32,1.07-42.52,1.87-1.46,5-4.57,8.76-8.2,1.56-3.36,3-6.68,4.35-9.66l-9.66-15.31c-4.62,7-12.66,20.74-15,25.54.43,6.78,2,30.78,3,43,8.42,9,61.23,61.43,73.15,71.32,0,0,10.16-9.92,15.4-15.57C1656.56,801.37,1646.9,779,1646,775.32Z"/><path d="M1625.46,762.28l9.83,15.58,7.45-7.46L1631.59,753c-2.13,1.37-4.13,2.69-5.6,3.65C1625.7,758.76,1625.55,760.61,1625.46,762.28Z"/><path class="cls-8" d="M1598.26,719.17l9.51,15.07c2.73-2.81,5.2-5.33,7.15-7.31l-6.33-9.9c-1.8-1.54-3.34-2.83-4.19-3.49C1602.38,715.3,1600.31,717.22,1598.26,719.17Z"/><path class="cls-8" d="M1600.42,705.78a70.55,70.55,0,0,0-13.78-5.55l-.17.25,9.66,15.31C1598.05,711.39,1599.59,707.72,1600.42,705.78Z"/><path d="M1602.16,767.8c11.43,8.41,29.86,22,38.33,28.65,4.55,8.14,7.89,14.94,11.32,18.62-.48-3.82-6.58-15.34-9.41-20.27-8.38-6.62-31.54-23.64-38.37-28.71a101.7,101.7,0,0,1-3.42-12.79c-.41-2.34-.93-8.46-1-10.53C1598.16,747,1597.49,754.56,1602.16,767.8Z"/><path class="cls-8" d="M1574.45,769c11.16-8.22,37.54-28.88,46.17-35.28,2.54,3.2,6.91,9.91,9.47,14.1-3.88,3-20.67,15.71-29.86,23.69C1593.51,775.29,1579,774.9,1574.45,769Z"/><path d="M1585.54,734.81A83.58,83.58,0,0,0,1593.3,724c-4.36,4.26-8.16,8-10.28,9.69-.28,9.94-1,30.48-1.06,40.9.72.82,1.41,2.25,2.47,2.94C1584.56,767.81,1585.47,743.6,1585.54,734.81Z"/><path d="M1574.45,769c3.11,3.3,10.25,10.41,18.62,18.55-5.17-7.89-12.35-15.4-16.1-19.56-.94-12-2.2-26-5.06-35.59C1572.56,742.46,1573.68,759.38,1574.45,769Z"/><g id="ICONS"><path class="cls-9" d="M1310.2,378c-105.2,0-190.48,85.28-190.48,190.48S1205,759,1310.2,759s190.47-85.28,190.47-190.47S1415.39,378,1310.2,378Zm44.19,305.19c-2,3.63-6.14,7-9.44,9.42a165.76,165.76,0,0,1-16.61,10.62q-6.16,3.49-12.63,6.45l-5,2.13h0c-.23-.1-4.8-2-5.13-2.13q-6.45-2.94-12.63-6.45a165.76,165.76,0,0,1-16.61-10.62c-3.3-2.44-7.45-5.79-9.44-9.42-.73-1.32-1.09-2.62.08-3.15a3.11,3.11,0,0,1,1.11-.24c2.82-.18,7.35,3.5,9.63,4.83,11.53,6.77,32.92,16.6,32.92,16.6s21.39-9.83,32.92-16.6c2.28-1.33,6.81-5,9.63-4.83a3.11,3.11,0,0,1,1.11.24C1355.48,680.57,1355.12,681.87,1354.39,683.19Zm-.52-5.89c-13,2.52-26.12,4-39.84,6-13.34-2.15-27.22-3.61-40.69-6.79-11.39-2.68-17.82-12.42-23.65-21.68-12.29-19.53-18-41.23-19.63-64.11-.47-6.61-.77-13.23-1.47-19.81-.53-5,1.09-7.69,6.05-9.7,18.44-7.44,37.69-10.93,57.32-12.16,34.49-2.14,68.33,2.57,101.73,11.06,3.8,1,5.61,2.46,5.57,6.85-.33,38.37-10.29,73.48-34.91,103.56C1361.81,673.63,1357.7,676.55,1353.87,677.3Zm76.5-97.88c-5.45,16.28-16.45,29.48-25.72,32.38s-6.38-5.81,1.65-9.16,21.64-25.67,21.42-41.74-6.25-18.8-11-12.35c-4.35,5.85-6.83,11.64-10.56,7.38-.78-.62-1.51-1.87-2-4.19-2.67-11.57.06-24.78-.68-36.6-.21-3.46.19-7.8-1.53-10.95-1.06-1.95-7.11-6.16-9.14-4.24-2.43,2.31,4.59,12.87,4.35,16.16a3.75,3.75,0,0,1-1,2.58,4.25,4.25,0,0,1-2.94.72c-9.47,0-19,.25-28.31-1.9-2.24-.52-15.13-7.64-15.84-4-.54,2.85,5.91,4.55,2.43,7.4-1.2,1-2.89,1-4.44,1-10.11-.13-19.73-1.51-29.15-5.26-12-4.79-24.12-12.35-33.12-21.69-3.47-3.61-9-18.31-15.16-17.35-4.86.75-9.49,14.21-11.66,18.06-8.69,15.45-13.9,32.15-24.82,46.46-1,1.3-2.47,2.73-4,2.16a15,15,0,0,0-1.57-6.75c-2.87,3.19-3.59,6.44-3.23,10.54.29,3.23,2.64,9-.91,11-1.27.71-5.13-.11-7.59-.91-4.12-.87-8.8-5.49-11.9-9.65-4.79-6.45-10.82-3.73-11,12.35s13.39,38.4,21.42,41.74,10.93,12.06,1.65,9.16-20.27-16.1-25.72-32.38c-5.83-17.41-8.53-37.88,2.75-43.7,6.14-3.17,11,1.48,13.3,4.54-4.78-19.66-4.17-41.1,2.29-60.16a77.15,77.15,0,0,1,13.88-25.42,49.25,49.25,0,0,1,11.09-9.78c1.84-1.15,4.45-3,6.62-3.37,2.78-.44,5.35,1.37,8.21.6.82-.23,5-7.35,6.44-8.68,14.76-13.68,32.17-18.21,52.18-17.6,13.92.42,27.63,3.65,40.81,8,19,6.27,38.88,17.68,51.29,33.82.4.53.79,1.05,1.17,1.59,13.62,19.61,21.75,45.51,15.08,78.41,2.28-3,6.23-5.69,12.31-1.95C1438.43,542.37,1436.2,562,1430.37,579.42Z"/><path class="cls-9" d="M847.5,378c105.73.35,190.83,85.78,190.38,191.12A190.4,190.4,0,0,1,846.44,759c-104.91-.35-189.89-86-189.51-191.11S742.78,377.66,847.5,378Zm-99,211.66h-.12q0-32,0-64c0-1.23-.67-3,1.32-3.28a6.7,6.7,0,0,1,1.07,3.22c.08,14.1,0,28.2,0,42.29,0,3-.06,6.08,0,9.11a7.13,7.13,0,0,0,8.66,7c3.37-.82,5.44-3.87,5.44-8.15q0-30.57.07-61.15a16.81,16.81,0,0,0-17.15-17.07c-5,0-10,0-15,0-7.15,0-14.31-.06-21.47,0-11,.12-18.13,7.33-18.13,18.22v59.85c0,.72,0,1.45,0,2.17a7.59,7.59,0,0,0,5.41,6.15,6.38,6.38,0,0,0,7.11-2.93,11.32,11.32,0,0,0,1.35-5.11c.1-16.62,0-33.25.09-49.88,0-1.23-.76-3.41,1-3.46,2.07,0,1.26,2.21,1.26,3.47q.08,63,0,126c0,.8,0,1.6,0,2.39.39,4.48,4.68,7.88,9.7,7.66,4-.17,8.49-2.81,8.44-8.22-.17-22.12-.07-44.24-.07-66.36a6.26,6.26,0,0,1,.09-1.94c.15-.45.73-1.11,1.05-1.07a2,2,0,0,1,1.35,1,4,4,0,0,1,.11,1.71q.06,30.9.13,61.8c0,1.81,0,3.62,0,5.42a6.81,6.81,0,0,0,2.51,5.54,9.87,9.87,0,0,0,10.61,1.24c3.6-1.56,5-4.47,4.93-8.35C748.43,631.87,748.46,610.77,748.46,589.66Zm236.49.08q0-32.21,0-64.41a7.27,7.27,0,0,1,.17-2.14,1.06,1.06,0,0,1,2.08,0,6.56,6.56,0,0,1,.27,2.13q0,7,0,14.09c0,12.44-.08,24.87-.06,37.3,0,4.32,3.15,7.56,7,7.52s6.95-3.18,7-7.54c0-21.26.1-42.51,0-63.76a12.72,12.72,0,0,0-1.51-6c-3.35-5.88-8.47-9.22-15.36-9.26q-18-.1-36,0a24.69,24.69,0,0,0-6.39.94,16.72,16.72,0,0,0-12.42,16.49c.26,20.09.05,40.19,0,60.29,0,.72,0,1.45,0,2.16a7.57,7.57,0,0,0,6.46,6.61,6.86,6.86,0,0,0,7.25-5.25,14.08,14.08,0,0,0,.28-3.44q0-24.72-.07-49.44a9.31,9.31,0,0,1,.15-2.37c.13-.45.71-1.06,1.1-1.07s1,.59,1.11,1a10.54,10.54,0,0,1,.17,2.58q0,63.54.08,127.08a10.2,10.2,0,0,0,1.68,5.4c2.19,3.26,6.94,4.32,11,2.9s5.4-3.71,5.4-8.34v-65.5a9.61,9.61,0,0,1,.1-2.15c.09-.4.57-1,.86-1a1.7,1.7,0,0,1,1.35.72,7.71,7.71,0,0,1,.32,2.54c0,22,0,44.1.15,66.14a9.85,9.85,0,0,0,1.35,4.87c1.87,3,6.71,4.18,10.56,2.9s5.88-3.94,5.88-8.06Zm-98.54,25.43.38.07c.19-.35.41-.7.58-1.06,7.55-15.19,15.06-30.39,22.68-45.55a4.67,4.67,0,0,0-.06-4.75c-6.39-12.7-12.66-25.46-19-38.19-1.39-2.8-2.8-5.58-4.2-8.36l-.5.13v17.18h-78V517.32c-.56.86-.82,1.17-1,1.52Q795.79,542,784.28,565.16a3.26,3.26,0,0,0,.12,2.54q11.31,22.9,22.76,45.75a21.29,21.29,0,0,0,1.23,1.88V597.82h78v17.35Zm79-120.85a16.48,16.48,0,0,0,.08-32.95,16.48,16.48,0,1,0-.08,32.95ZM712.45,477.69a16.41,16.41,0,1,0,32.82.14,16.41,16.41,0,0,0-32.82-.14Z"/><path class="cls-9" d="M849.11,581h-5v-21h4.42l.29,1.73c6.81-3.46,8.14-3.41,11.25-.13,2.69-.83,5-2,7.51-2.23,3.2-.32,5.06,1.69,5.35,5,0,.5,0,1,0,1.51V580.9h-5V572c0-1.59,0-3.18,0-4.77,0-2.7-.87-3.8-2.81-3.75a4.05,4.05,0,0,0-4.09,4v13.38h-5.06v-8.35c0-1.67,0-3.33,0-5,0-2.91-.83-4.12-2.72-4.08a4.4,4.4,0,0,0-4.28,4.39C849.1,572.2,849.11,576.52,849.11,581Z"/><path class="cls-9" d="M832.72,576.74h4.86V581h-14.8v-4.11h4.54V556.72l-5.18.56c-.82-3.09-.73-3.37,2.14-4.19,2.65-.75,5.34-1.34,8.44-2.11Z"/><path class="cls-9" d="M377.37,378C272.18,378,186.9,463.28,186.9,568.48S272.18,759,377.37,759s190.48-85.28,190.48-190.47S482.57,378,377.37,378Zm96.85,108.53.78-1.17a1.74,1.74,0,0,1,2.7,0l.8,1.2c5.11,7.7,17.08,25.73,17.08,38.73,0,12.51-9.87,19.27-19.16,19.27h-.15a19,19,0,0,1-19.12-19.27C457.15,512.26,469.12,494.23,474.22,486.53Zm-45.1-26.38.62-.91a1.35,1.35,0,0,1,2.13,0l.63.95c4,6,13.31,20.11,13.31,30.27,0,9.77-7.69,15-14.94,15h-.13a14.85,14.85,0,0,1-15-15C415.77,480.28,425.13,466.18,429.12,460.15Zm-161.21,110s.44,42.12,0,41.6H246.79a4.87,4.87,0,0,1-4.89-4.91v-90.7a4.85,4.85,0,0,1,4.89-4.91h20.07l87.43-50.32A14.73,14.73,0,1,1,369,486.4l-38.28,22v2.4c.2,0,.36-.06.57-.06h41.59l-71.83,42.65H284.42c-4.79,0-10.61.58-14,4S267.85,565.34,267.91,570.13ZM501.4,615.34h-104v8.73H485A11.46,11.46,0,1,1,485,647H397.41v9h60.27a9.82,9.82,0,0,1,0,19.63l-129.12-.34a39.21,39.21,0,0,1-29.67-13.57H280.56a4.87,4.87,0,0,1-4.88-4.91V566.11a4.84,4.84,0,0,1,4.88-4.91h20.1l87.4-50.32a14.74,14.74,0,1,1,14.73,25.53l-38.28,22v2.41c.19,0,.36-.05.55-.06h116.7a11.46,11.46,0,1,1,0,22.92H397.41v8.73h104a11.46,11.46,0,0,1,0,22.92Z"/></g></g></g></svg>